# xmcd CD database file
#
# Track frame offsets:
#	150
#	15907
#	32547
#	48995
#	66247
#	83552
#	99120
#	110232
#	126747
#	141097
#	156220
#	176587
#
# Disc length: 2641 seconds
#
# Revision: 3
# Processed by: cddbd v1.5.1PL0 Copyright (c) Steve Scherf et al.
# Submitted via: CDex 1.51
#
DISCID=980a4f0c
DTITLE=Suzy Bogguss - Suzy Bogguss
DYEAR=1999
DGENRE=Country
TTITLE0=Taking That Red-Eye Home
TTITLE1=Goodnight
TTITLE2=Love Is Stronger
TTITLE3=Love Is Blind (Duet With T. Graham Brown)
TTITLE4=An Empty Heart And A Harvest Moon
TTITLE5=It's A Perfect Day (For A Little Rain)
TTITLE6=Love Every Time
TTITLE7=Hold Me To It
TTITLE8=20 Million Things
TTITLE9=Hammer And Nail
TTITLE10=Look What Love Has Done To Me
TTITLE11=No Place To Go
EXTD=YEAR: 1999
EXTT0=
EXTT1=
EXTT2=
EXTT3=
EXTT4=
EXTT5=
EXTT6=
EXTT7=
EXTT8=
EXTT9=
EXTT10=
EXTT11=
PLAYORDER=
